<?xml version="1.0" encoding="utf-8"?>
<!-- Generator: Adobe Illustrator 26.1.0, SVG Export Plug-In . SVG Version: 6.00 Build 0)  -->
<svg version="1.1" id="Ebene_1" xmlns="http://www.w3.org/2000/svg" xmlns:xlink="http://www.w3.org/1999/xlink" x="0px" y="0px"
	 viewBox="0 0 32 32" style="enable-background:new 0 0 32 32;" xml:space="preserve">
<g>
	<path d="M27.5,0.7c-0.4-0.4-1-0.7-1.6-0.7h0H6.1C5.5,0,4.9,0.2,4.5,0.7c-0.4,0.4-0.7,1-0.7,1.6v27.5c0,0.6,0.2,1.2,0.7,1.6
		c0.4,0.4,1,0.7,1.6,0.7h19.8c0.6,0,1.2-0.2,1.6-0.7c0.4-0.4,0.7-1,0.7-1.6V2.2C28.1,1.6,27.9,1.1,27.5,0.7z M5,11.1h22v9.8H5
		L5,11.1z M27,29.8c0,0.3-0.1,0.6-0.3,0.8c-0.2,0.2-0.5,0.3-0.8,0.3h0H6.1c-0.3,0-0.6-0.1-0.8-0.3C5.1,30.3,5,30.1,5,29.8V22h22
		V29.8z M27,10H5V2.2c0-0.3,0.1-0.6,0.3-0.8c0.2-0.2,0.5-0.3,0.8-0.3h19.8c0.3,0,0.6,0.1,0.8,0.3C26.9,1.7,27,1.9,27,2.2V10z"/>
	<path d="M20.9,3.6c-0.3,0-0.6,0.3-0.6,0.6v1.7h-8.7l0-1.7c0-0.3-0.3-0.6-0.6-0.6c-0.3,0-0.6,0.3-0.6,0.6v2.3c0,0.3,0.3,0.6,0.6,0.6
		h0h9.8c0.3,0,0.6-0.3,0.6-0.6V4.1C21.5,3.8,21.2,3.6,20.9,3.6z"/>
	<path d="M20.9,13.7c-0.3,0-0.6,0.3-0.6,0.6V16h-8.7l0-1.7c0-0.3-0.3-0.6-0.6-0.6c-0.3,0-0.6,0.3-0.6,0.6v2.3c0,0.3,0.3,0.6,0.6,0.6
		h9.8c0.3,0,0.6-0.3,0.6-0.6v-2.3C21.5,14,21.2,13.7,20.9,13.7z"/>
	<polygon points="20.9,13.7 20.9,13.7 20.9,13.7 	"/>
	<path d="M11.1,28.4h9.8c0.3,0,0.6-0.3,0.6-0.6v-2.3c0-0.3-0.3-0.6-0.6-0.6c-0.3,0-0.6,0.3-0.6,0.6v1.7h-8.7l0-1.7
		c0-0.3-0.3-0.6-0.6-0.6c-0.3,0-0.6,0.3-0.6,0.6v2.3C10.5,28.2,10.8,28.4,11.1,28.4z"/>
	<polygon points="20.9,25 20.9,25 20.9,25 	"/>
</g>
</svg>
