<?xml version="1.0" encoding="utf-8"?>
<!-- Generator: Adobe Illustrator 26.1.0, SVG Export Plug-In . SVG Version: 6.00 Build 0)  -->
<svg version="1.1" id="Ebene_1" xmlns="http://www.w3.org/2000/svg" xmlns:xlink="http://www.w3.org/1999/xlink" x="0px" y="0px"
	 viewBox="0 0 32 32" style="enable-background:new 0 0 32 32;" xml:space="preserve">
<g>
	<path d="M30.4,0.6C30.1,0.2,29.5,0,29,0h0H3C2.5,0,1.9,0.2,1.6,0.6S0.9,1.5,0.9,2.1v2.8c0,0.5,0.2,1.1,0.6,1.5S2.5,6.9,3,6.9h1.4
		L6.6,30c0.1,0.5,0.3,1,0.7,1.4C7.7,31.8,8.2,32,8.7,32h14.6c0.5,0,1.1-0.2,1.4-0.6c0.4-0.4,0.6-0.9,0.7-1.4l2.2-23.1H29
		c0.5,0,1.1-0.2,1.5-0.6s0.6-0.9,0.6-1.5V2.1C31.1,1.5,30.8,1,30.4,0.6z M24.2,29.9c-0.1,0.5-0.4,0.8-0.9,0.8H8.7
		c-0.5,0-0.8-0.4-0.9-0.8l-2.2-23h20.7L24.2,29.9z M29.8,4.8c0,0.4-0.4,0.8-0.8,0.8H3c-0.4,0-0.8-0.4-0.8-0.8V2.1
		c0-0.4,0.4-0.8,0.8-0.8h26c0.4,0,0.8,0.4,0.8,0.8V4.8z"/>
	<path d="M15.4,23.7c0.1,0.1,0.3,0.2,0.5,0.2c0.3,0,0.6-0.3,0.6-0.6l0-14.9c0-0.3-0.3-0.6-0.6-0.6c-0.3,0-0.6,0.3-0.6,0.6l0,14.9
		C15.2,23.4,15.3,23.6,15.4,23.7z"/>
	<polygon points="15.8,23.9 15.8,23.9 15.8,23.9 	"/>
	<path d="M10.4,23.3c0,0.3,0.3,0.6,0.6,0.6h0c0.3,0,0.6-0.3,0.6-0.7L10.9,8.3c0-0.2-0.1-0.3-0.2-0.4c-0.1-0.1-0.3-0.2-0.5-0.2
		C9.9,7.7,9.6,8,9.6,8.4L10.4,23.3L10.4,23.3z"/>
	<path d="M21,23.9L21,23.9c0.4,0,0.6-0.3,0.7-0.6l0.7-14.9l0,0c0-0.3-0.2-0.6-0.6-0.7c-0.2,0-0.3,0-0.5,0.2
		c-0.1,0.1-0.2,0.3-0.2,0.4l-0.7,14.9C20.4,23.6,20.6,23.9,21,23.9z"/>
</g>
</svg>
