<?xml version="1.0" encoding="utf-8"?>
<!-- Generator: Adobe Illustrator 26.1.0, SVG Export Plug-In . SVG Version: 6.00 Build 0)  -->
<svg version="1.1" id="Ebene_1" xmlns="http://www.w3.org/2000/svg" xmlns:xlink="http://www.w3.org/1999/xlink" x="0px" y="0px"
	 viewBox="0 0 32 32" style="enable-background:new 0 0 32 32;" xml:space="preserve">
<g>
	<path d="M28.5,0.8C28,0.3,27.4,0,26.7,0v0H7.3C6.6,0,6,0.3,5.5,0.8C5,1.2,4.7,1.9,4.7,2.6v4.9H3.4C3,7.4,2.7,7.7,2.7,8.1
		c0,0.4,0.3,0.7,0.7,0.7h1.3v3.9H3.4c-0.4,0-0.7,0.3-0.7,0.7C2.7,13.7,3,14,3.4,14h1.3V18H3.4c-0.4,0-0.7,0.3-0.7,0.7
		c0,0.4,0.3,0.7,0.7,0.7h1.3v3.9H3.4c-0.4,0-0.7,0.3-0.7,0.7c0,0.4,0.3,0.7,0.7,0.7h1.3v4.9c0,0.7,0.3,1.3,0.8,1.8
		C6,31.7,6.6,32,7.3,32h19.4c0.7,0,1.3-0.3,1.8-0.8c0.5-0.5,0.8-1.1,0.8-1.8V2.6C29.3,1.9,29,1.2,28.5,0.8z M27.9,29.4
		c0,0.3-0.1,0.7-0.4,0.9c-0.2,0.2-0.6,0.4-0.9,0.4H7.3c-0.3,0-0.7-0.1-0.9-0.4C6.2,30.1,6,29.7,6,29.4v-4.9h1.8
		c0.4,0,0.7-0.3,0.7-0.7c0-0.4-0.3-0.7-0.7-0.7H6v-3.9h1.8c0.4,0,0.7-0.3,0.7-0.7c0-0.4-0.3-0.7-0.7-0.7H6V14h1.8
		c0.4,0,0.7-0.3,0.7-0.7c0-0.4-0.3-0.7-0.7-0.7H6V8.8h1.8c0.4,0,0.7-0.3,0.7-0.7c0-0.4-0.3-0.7-0.7-0.7H6l0-4.9
		c0-0.3,0.1-0.7,0.4-0.9C6.6,1.5,7,1.3,7.3,1.3h19.4c0.3,0,0.7,0.1,0.9,0.4c0.2,0.2,0.4,0.6,0.4,0.9L27.9,29.4z"/>
	<path d="M21.8,5H13c-0.5,0-0.9,0.2-1.3,0.5c-0.3,0.3-0.5,0.8-0.5,1.3v3.4c0,0.5,0.2,0.9,0.5,1.3c0.3,0.3,0.8,0.5,1.3,0.5h8.8
		c0.5,0,0.9-0.2,1.3-0.5c0.3-0.3,0.5-0.8,0.5-1.3V6.8c0-0.5-0.2-0.9-0.5-1.3C22.7,5.2,22.3,5,21.8,5z M22.3,10.3
		c0,0.3-0.2,0.5-0.5,0.5H13c-0.3,0-0.5-0.2-0.5-0.5V6.8c0-0.3,0.2-0.5,0.5-0.5h8.8c0.3,0,0.5,0.2,0.5,0.5V10.3z"/>
</g>
</svg>
