<?xml version="1.0" encoding="utf-8"?>
<!-- Generator: Adobe Illustrator 26.1.0, SVG Export Plug-In . SVG Version: 6.00 Build 0)  -->
<svg version="1.1" id="Ebene_1" xmlns="http://www.w3.org/2000/svg" xmlns:xlink="http://www.w3.org/1999/xlink" x="0px" y="0px"
	 viewBox="0 0 700 700" style="enable-background:new 0 0 700 700;" xml:space="preserve">
<g>
	<path d="M35.9,364.2h0.5l0,0c5.5,0,10.1-4.3,10.3-9.8c4.1-93.6,50.6-179.7,127.6-236.1C242.8,67.9,328,48.5,411.5,63.5l-30.1,16.9
		c-5,2.8-6.7,9.1-3.9,14c1.9,3.4,5.4,5.3,9,5.3l0,0c1.7,0,3.4-0.4,5.1-1.3l53.6-30.1c2.4-1.4,4.2-3.7,4.9-6.5c0.7-2.7,0.2-5.6-1.3-8
		L417.6,4.8c-3.1-4.8-9.4-6.3-14.3-3.2c-4.8,3-6.2,9.4-3.2,14.2l17.8,27.9C328,26.8,236,47.3,162,101.6
		c-82.1,60.2-131.6,152-136,251.8C25.8,359.1,30.2,363.9,35.9,364.2z"/>
	<polygon points="357.7,700 357.7,700 357.7,700 	"/>
	<path d="M521.3,632.6c-82.1,51.8-186.1,61.2-278.1,25.2c-84-32.9-147.6-98.6-177.8-182.7l29,17.8c4.8,3,11.2,1.5,14.2-3.4
		c3-4.9,1.5-11.2-3.4-14.2l-52.4-32.2c-1.5-0.9-3.2-1.4-5-1.5c-1,0-1.9,0.1-2.9,0.3c-0.1,0-0.1,0-0.2,0c0,0,0,0,0,0c0,0,0,0,0,0
		c-3,0.8-5.3,2.9-6.6,5.4l-27.5,50.7c-2.7,5-0.9,11.3,4.1,14c1.5,0.8,3.2,1.2,4.9,1.2l0,0c3.7,0,7.2-2,9.2-5.4l16-29.4
		c31.8,91.3,100.2,162.9,191,198.4c39.4,15.4,80.9,23,122,23c61.4,0,122.2-16.9,174.5-49.9c4.9-3,6.3-9.4,3.2-14.2
		C532.5,631,526.1,629.6,521.3,632.6z"/>
	<path d="M641.8,583.8h-0.3l-33.5,0.9c60.3-70,88.6-160.9,77.9-253.1C674,229.7,618,140.9,532.2,87.9c-4.9-3-11.2-1.5-14.2,3.4
		c-3,4.8-1.5,11.2,3.4,14.2c80.4,49.6,132.9,132.9,144,228.6c9.9,85.2-15.7,169.3-70.7,234.5l0.9-33.9c0.2-5.7-4.4-10.4-10-10.6
		c-5.8,0.1-10.4,4.4-10.6,10l-1.7,61.5c0,0.1,0,0.2,0,0.3c0,0,0,0.1,0,0.1c0,0.3,0,0.5,0,0.8c0.2,2.3,1.2,4.6,3,6.4c2,2,4.6,3,7.3,3
		l0,0c0.4,0,0.8,0,1.1-0.1l57.2-1.6c5.7-0.2,10.2-4.9,10-10.6C651.9,588.3,647.3,583.8,641.8,583.8z"/>
</g>
</svg>
